<svg id="Capa_1" enable-background="new 0 0 510.089 510.089" height="512" viewBox="0 0 510.089 510.089" width="512" xmlns="http://www.w3.org/2000/svg"><g><path d="m477.863 274.095c-8.221 11.574 7.401-5.653-197.04 208.06l-18.012-9.951-6.079 18.128-9.93 10.783c-216.592-226.421-201.321-210.206-206.639-216.6-28.409-34.067-42.781-78.774-39.77-124.16 8.733-131.594 150.426-202.586 254.61-131.63.2-.14.4-.28.61-.41 4.195-2.835 14.688 7.836 19.113 5.421s2.782-17.916 7.397-19.901c59.17-25.499 130.575-14.173 179.86 37.36 57.98 60.611 63.667 155.583 15.88 222.9z" fill="#f66"/><path d="m477.863 274.095c-8.128 11.443 7.669-5.89-197.043 208.057-10.873 11.364-19.284 1.244-20.306 2.308l34.489-161.405-72-69.23 52.36-59.34 15.64-118.68-17.298-49.728c4.408-2.406 3.818-10.264 8.416-12.245 19.908-8.577 41.435-13.117 63.141-13.117 135.998 0 211.968 161.576 132.601 273.38z" fill="#e62e6b"/><path d="m311.223 317.845-30.4 164.31c-18.299 19.127-12.438 13.009-26.09 27.24l-7.93-8.28 31.98-172.85-76.54-73.59 58.85-66.68 14.52-110.23-20-49.45c8.39-5.67 17.28-10.51 26.51-14.48.607 1.493 23.673 58.533 24.27 60.01l-16.76 127.13-45.87 52z" fill="#ffd5b6"/><path d="m366.546 120.885-3.649 74.554-91.894 27.276h-135v-126h135z" fill="#ecf9fd"/><path d="m271.003 96.715h135v126h-135z" fill="#d9f3fc"/><path d="m319.322 112.034 9.192 96.341-57.511 14.34h-63v-126h63z" fill="#fed843"/><path d="m271.003 96.715h63v126h-63z" fill="#fabe2c"/></g></svg>